<?xml version="1.0" encoding="UTF-8" standalone="no"?>
<!DOCTYPE svg PUBLIC "-//W3C//DTD SVG 1.1//EN"
 "http://www.w3.org/Graphics/SVG/1.1/DTD/svg11.dtd">
<!-- Generated by graphviz version 5.0.0 (20220707.1540)
 -->
<!-- Title: StorageDiagram Pages: 1 -->
<svg width="1391pt" height="350pt"
 viewBox="0.00 0.00 1391.00 350.20" xmlns="http://www.w3.org/2000/svg" xmlns:xlink="http://www.w3.org/1999/xlink">
<g id="graph0" class="graph" transform="scale(1 1) rotate(0) translate(4 346.2)">
<title>StorageDiagram</title>
<polygon fill="white" stroke="transparent" points="-4,4 -4,-346.2 1387,-346.2 1387,4 -4,4"/>
<!-- 3 -->
<g id="node1" class="node">
<title>3</title>
<polygon fill="#f2f2f2" stroke="black" points="0,-40.5 0,-338.1 468.87,-338.1 468.87,-40.5 0,-40.5"/>
<text text-anchor="middle" x="234.44" y="-321.5" font-family="Courier New" font-size="14.00">GasContract &lt;&lt;Contract&gt;&gt;</text>
<polyline fill="none" stroke="black" points="0,-313.3 468.87,-313.3 "/>
<text text-anchor="middle" x="24.8" y="-296.7" font-family="Courier New" font-size="14.00">slot</text>
<polyline fill="none" stroke="black" points="0,-288.5 49.61,-288.5 "/>
<text text-anchor="middle" x="24.8" y="-271.9" font-family="Courier New" font-size="14.00">0</text>
<polyline fill="none" stroke="black" points="0,-263.7 49.61,-263.7 "/>
<text text-anchor="middle" x="24.8" y="-247.1" font-family="Courier New" font-size="14.00">1</text>
<polyline fill="none" stroke="black" points="0,-238.9 49.61,-238.9 "/>
<text text-anchor="middle" x="24.8" y="-222.3" font-family="Courier New" font-size="14.00">2</text>
<polyline fill="none" stroke="black" points="0,-214.1 49.61,-214.1 "/>
<text text-anchor="middle" x="24.8" y="-197.5" font-family="Courier New" font-size="14.00">3&#45;7</text>
<polyline fill="none" stroke="black" points="0,-189.3 49.61,-189.3 "/>
<text text-anchor="middle" x="24.8" y="-172.7" font-family="Courier New" font-size="14.00">8</text>
<polyline fill="none" stroke="black" points="0,-164.5 49.61,-164.5 "/>
<text text-anchor="middle" x="24.8" y="-147.9" font-family="Courier New" font-size="14.00">9</text>
<polyline fill="none" stroke="black" points="0,-139.7 49.61,-139.7 "/>
<text text-anchor="middle" x="24.8" y="-123.1" font-family="Courier New" font-size="14.00">10</text>
<polyline fill="none" stroke="black" points="0,-114.9 49.61,-114.9 "/>
<text text-anchor="middle" x="24.8" y="-98.3" font-family="Courier New" font-size="14.00">11</text>
<polyline fill="none" stroke="black" points="0,-90.1 49.61,-90.1 "/>
<text text-anchor="middle" x="24.8" y="-73.5" font-family="Courier New" font-size="14.00">12</text>
<polyline fill="none" stroke="black" points="0,-65.3 49.61,-65.3 "/>
<text text-anchor="middle" x="24.8" y="-48.7" font-family="Courier New" font-size="14.00">13</text>
<polyline fill="none" stroke="black" points="49.61,-40.5 49.61,-313.3 "/>
<text text-anchor="middle" x="259.24" y="-296.7" font-family="Courier New" font-size="14.00">type: &lt;inherited contract&gt;.variable (bytes)</text>
<polyline fill="none" stroke="black" points="49.61,-288.5 468.87,-288.5 "/>
<text text-anchor="middle" x="128.82" y="-271.9" font-family="Courier New" font-size="14.00">unallocated (12)</text>
<polyline fill="none" stroke="black" points="208.03,-263.7 208.03,-288.5 "/>
<text text-anchor="middle" x="338.15" y="-271.9" font-family="Courier New" font-size="14.00">address: Ownable._owner (20)</text>
<polyline fill="none" stroke="black" points="49.61,-263.7 468.87,-263.7 "/>
<text text-anchor="middle" x="259.12" y="-247.1" font-family="Courier New" font-size="14.00">uint256: totalSupply (32)</text>
<polyline fill="none" stroke="black" points="49.61,-238.9 468.87,-238.9 "/>
<text text-anchor="middle" x="259.22" y="-222.3" font-family="Courier New" font-size="14.00">uint256: paymentCounter (32)</text>
<polyline fill="none" stroke="black" points="49.61,-214.1 468.87,-214.1 "/>
<text text-anchor="middle" x="259.03" y="-197.5" font-family="Courier New" font-size="14.00">address[5]: administrators (160)</text>
<polyline fill="none" stroke="black" points="49.61,-189.3 468.87,-189.3 "/>
<text text-anchor="middle" x="259.13" y="-172.7" font-family="Courier New" font-size="14.00">mapping(address=&gt;uint256): balances (32)</text>
<polyline fill="none" stroke="black" points="49.61,-164.5 468.87,-164.5 "/>
<text text-anchor="middle" x="259.03" y="-147.9" font-family="Courier New" font-size="14.00">mapping(address=&gt;Payment[]): payments (32)</text>
<polyline fill="none" stroke="black" points="49.61,-139.7 468.87,-139.7 "/>
<text text-anchor="middle" x="258.83" y="-123.1" font-family="Courier New" font-size="14.00">mapping(address=&gt;uint256): whitelist (32)</text>
<polyline fill="none" stroke="black" points="49.61,-114.9 468.87,-114.9 "/>
<text text-anchor="middle" x="143.82" y="-98.3" font-family="Courier New" font-size="14.00">unallocated (31)</text>
<polyline fill="none" stroke="black" points="238.03,-90.1 238.03,-114.9 "/>
<text text-anchor="middle" x="353.24" y="-98.3" font-family="Courier New" font-size="14.00">uint8: wasLastOdd (1)</text>
<polyline fill="none" stroke="black" points="49.61,-90.1 468.87,-90.1 "/>
<text text-anchor="middle" x="259.24" y="-73.5" font-family="Courier New" font-size="14.00">mapping(address=&gt;uint8): isOddWhitelistUser (32)</text>
<polyline fill="none" stroke="black" points="49.61,-65.3 468.87,-65.3 "/>
<text text-anchor="middle" x="259.04" y="-48.7" font-family="Courier New" font-size="14.00">mapping(address=&gt;uint256): whiteListStruct (32)</text>
</g>
<!-- 1 -->
<g id="node2" class="node">
<title>1</title>
<polygon fill="#f2f2f2" stroke="black" points="784.71,-192.9 784.71,-341.7 1103.16,-341.7 1103.16,-192.9 784.71,-192.9"/>
<text text-anchor="middle" x="943.94" y="-325.1" font-family="Courier New" font-size="14.00">address[5]: administrators &lt;&lt;Array&gt;&gt;</text>
<polyline fill="none" stroke="black" points="784.71,-316.9 1103.16,-316.9 "/>
<text text-anchor="middle" x="809.51" y="-300.3" font-family="Courier New" font-size="14.00">slot</text>
<polyline fill="none" stroke="black" points="784.71,-292.1 834.32,-292.1 "/>
<text text-anchor="middle" x="809.51" y="-275.5" font-family="Courier New" font-size="14.00">3</text>
<polyline fill="none" stroke="black" points="784.71,-267.3 834.32,-267.3 "/>
<text text-anchor="middle" x="809.51" y="-250.7" font-family="Courier New" font-size="14.00">4</text>
<polyline fill="none" stroke="black" points="784.71,-242.5 834.32,-242.5 "/>
<text text-anchor="middle" x="809.51" y="-225.9" font-family="Courier New" font-size="14.00">6</text>
<polyline fill="none" stroke="black" points="784.71,-217.7 834.32,-217.7 "/>
<text text-anchor="middle" x="809.51" y="-201.1" font-family="Courier New" font-size="14.00">7</text>
<polyline fill="none" stroke="black" points="834.32,-192.9 834.32,-316.9 "/>
<text text-anchor="middle" x="968.44" y="-300.3" font-family="Courier New" font-size="14.00">type: variable (bytes)</text>
<polyline fill="none" stroke="black" points="834.32,-292.1 1102.56,-292.1 "/>
<text text-anchor="middle" x="909.53" y="-275.5" font-family="Courier New" font-size="14.00">unallocated (12)</text>
<polyline fill="none" stroke="black" points="984.74,-267.3 984.74,-292.1 "/>
<text text-anchor="middle" x="1043.65" y="-275.5" font-family="Courier New" font-size="14.00">address (20)</text>
<polyline fill="none" stroke="black" points="834.32,-267.3 1102.56,-267.3 "/>
<text text-anchor="middle" x="909.53" y="-250.7" font-family="Courier New" font-size="14.00">unallocated (12)</text>
<polyline fill="none" stroke="black" points="984.74,-242.5 984.74,-267.3 "/>
<text text-anchor="middle" x="1043.65" y="-250.7" font-family="Courier New" font-size="14.00">address (20)</text>
<polyline fill="none" stroke="black" points="834.32,-242.5 1102.56,-242.5 "/>
<text text-anchor="middle" x="909.53" y="-225.9" font-family="Courier New" font-size="14.00">unallocated (12)</text>
<polyline fill="none" stroke="black" points="984.74,-217.7 984.74,-242.5 "/>
<text text-anchor="middle" x="1043.65" y="-225.9" font-family="Courier New" font-size="14.00">address (20)</text>
<polyline fill="none" stroke="black" points="834.32,-217.7 1102.56,-217.7 "/>
<text text-anchor="middle" x="909.53" y="-201.1" font-family="Courier New" font-size="14.00">unallocated (12)</text>
<polyline fill="none" stroke="black" points="984.74,-192.9 984.74,-217.7 "/>
<text text-anchor="middle" x="1043.65" y="-201.1" font-family="Courier New" font-size="14.00">address (20)</text>
</g>
<!-- 3&#45;&gt;1 -->
<g id="edge1" class="edge">
<title>3:8&#45;&gt;1</title>
<path fill="none" stroke="black" d="M468.87,-201.3C570.99,-201.3 684.31,-216.51 774.55,-232.33"/>
<polygon fill="black" stroke="black" points="774.14,-235.81 784.6,-234.11 775.36,-228.92 774.14,-235.81"/>
</g>
<!-- 2 -->
<g id="node3" class="node">
<title>2</title>
<polygon fill="#f2f2f2" stroke="black" points="504.87,-0.5 504.87,-174.1 1383,-174.1 1383,-0.5 504.87,-0.5"/>
<text text-anchor="middle" x="943.94" y="-157.5" font-family="Courier New" font-size="14.00">Payment &lt;&lt;Struct&gt;&gt;</text>
<polyline fill="none" stroke="black" points="504.87,-149.3 1383,-149.3 "/>
<text text-anchor="middle" x="538.08" y="-132.7" font-family="Courier New" font-size="14.00">offset</text>
<polyline fill="none" stroke="black" points="504.87,-124.5 571.28,-124.5 "/>
<text text-anchor="middle" x="538.08" y="-107.9" font-family="Courier New" font-size="14.00">0</text>
<polyline fill="none" stroke="black" points="504.87,-99.7 571.28,-99.7 "/>
<text text-anchor="middle" x="538.08" y="-83.1" font-family="Courier New" font-size="14.00">1</text>
<polyline fill="none" stroke="black" points="504.87,-74.9 571.28,-74.9 "/>
<text text-anchor="middle" x="538.08" y="-58.3" font-family="Courier New" font-size="14.00">2</text>
<polyline fill="none" stroke="black" points="504.87,-50.1 571.28,-50.1 "/>
<text text-anchor="middle" x="538.08" y="-33.5" font-family="Courier New" font-size="14.00">3</text>
<polyline fill="none" stroke="black" points="504.87,-25.3 571.28,-25.3 "/>
<text text-anchor="middle" x="538.08" y="-8.7" font-family="Courier New" font-size="14.00">4</text>
<polyline fill="none" stroke="black" points="571.28,-0.5 571.28,-149.3 "/>
<text text-anchor="middle" x="977.14" y="-132.7" font-family="Courier New" font-size="14.00">type: variable (bytes)</text>
<polyline fill="none" stroke="black" points="571.28,-124.5 1383,-124.5 "/>
<text text-anchor="middle" x="646.49" y="-107.9" font-family="Courier New" font-size="14.00">unallocated (10)</text>
<polyline fill="none" stroke="black" points="721.7,-99.7 721.7,-124.5 "/>
<text text-anchor="middle" x="826.32" y="-107.9" font-family="Courier New" font-size="14.00">address: recipient (20)</text>
<polyline fill="none" stroke="black" points="930.93,-99.7 930.93,-124.5 "/>
<text text-anchor="middle" x="1031.35" y="-107.9" font-family="Courier New" font-size="14.00">bool: adminUpdated (1)</text>
<polyline fill="none" stroke="black" points="1131.76,-99.7 1131.76,-124.5 "/>
<text text-anchor="middle" x="1257.38" y="-107.9" font-family="Courier New" font-size="14.00">PaymentType: paymentType (1)</text>
<polyline fill="none" stroke="black" points="571.28,-99.7 1383,-99.7 "/>
<text text-anchor="middle" x="767.49" y="-83.1" font-family="Courier New" font-size="14.00">unallocated (12)</text>
<polyline fill="none" stroke="black" points="963.7,-74.9 963.7,-99.7 "/>
<text text-anchor="middle" x="1173.01" y="-83.1" font-family="Courier New" font-size="14.00">address: admin (20)</text>
<polyline fill="none" stroke="black" points="571.28,-74.9 1383,-74.9 "/>
<text text-anchor="middle" x="977" y="-58.3" font-family="Courier New" font-size="14.00">string: recipientName (32)</text>
<polyline fill="none" stroke="black" points="571.28,-50.1 1383,-50.1 "/>
<text text-anchor="middle" x="976.9" y="-33.5" font-family="Courier New" font-size="14.00">uint256: paymentID (32)</text>
<polyline fill="none" stroke="black" points="571.28,-25.3 1383,-25.3 "/>
<text text-anchor="middle" x="976.79" y="-8.7" font-family="Courier New" font-size="14.00">uint256: amount (32)</text>
</g>
<!-- 3&#45;&gt;2 -->
<g id="edge2" class="edge">
<title>3:17&#45;&gt;2</title>
<path fill="none" stroke="black" d="M468.87,-152.3C477.38,-152.3 485.97,-152.2 494.61,-152"/>
<polygon fill="black" stroke="black" points="494.88,-155.49 504.78,-151.72 494.69,-148.49 494.88,-155.49"/>
</g>
</g>
</svg>
