<?xml version="1.0" encoding="UTF-8" standalone="no"?>
<!DOCTYPE svg PUBLIC "-//W3C//DTD SVG 1.1//EN"
 "http://www.w3.org/Graphics/SVG/1.1/DTD/svg11.dtd">
<!-- Generated by graphviz version 5.0.0 (20220707.1540)
 -->
<!-- Title: StorageDiagram Pages: 1 -->
<svg width="814pt" height="232pt"
 viewBox="0.00 0.00 813.71 232.20" xmlns="http://www.w3.org/2000/svg" xmlns:xlink="http://www.w3.org/1999/xlink">
<g id="graph0" class="graph" transform="scale(1 1) rotate(0) translate(4 228.2)">
<title>StorageDiagram</title>
<polygon fill="white" stroke="transparent" points="-4,4 -4,-228.2 809.71,-228.2 809.71,4 -4,4"/>
<!-- 2 -->
<g id="node1" class="node">
<title>2</title>
<polygon fill="#f2f2f2" stroke="black" points="0,-0.5 0,-223.7 451.27,-223.7 451.27,-0.5 0,-0.5"/>
<text text-anchor="middle" x="225.63" y="-207.1" font-family="Courier New" font-size="14.00">GasContract &lt;&lt;Contract&gt;&gt;</text>
<polyline fill="none" stroke="black" points="0,-198.9 451.27,-198.9 "/>
<text text-anchor="middle" x="24.8" y="-182.3" font-family="Courier New" font-size="14.00">slot</text>
<polyline fill="none" stroke="black" points="0,-174.1 49.61,-174.1 "/>
<text text-anchor="middle" x="24.8" y="-157.5" font-family="Courier New" font-size="14.00">0</text>
<polyline fill="none" stroke="black" points="0,-149.3 49.61,-149.3 "/>
<text text-anchor="middle" x="24.8" y="-132.7" font-family="Courier New" font-size="14.00">1</text>
<polyline fill="none" stroke="black" points="0,-124.5 49.61,-124.5 "/>
<text text-anchor="middle" x="24.8" y="-107.9" font-family="Courier New" font-size="14.00">2&#45;6</text>
<polyline fill="none" stroke="black" points="0,-99.7 49.61,-99.7 "/>
<text text-anchor="middle" x="24.8" y="-83.1" font-family="Courier New" font-size="14.00">7</text>
<polyline fill="none" stroke="black" points="0,-74.9 49.61,-74.9 "/>
<text text-anchor="middle" x="24.8" y="-58.3" font-family="Courier New" font-size="14.00">8</text>
<polyline fill="none" stroke="black" points="0,-50.1 49.61,-50.1 "/>
<text text-anchor="middle" x="24.8" y="-33.5" font-family="Courier New" font-size="14.00">9</text>
<polyline fill="none" stroke="black" points="0,-25.3 49.61,-25.3 "/>
<text text-anchor="middle" x="24.8" y="-8.7" font-family="Courier New" font-size="14.00">10</text>
<polyline fill="none" stroke="black" points="49.61,-0.5 49.61,-198.9 "/>
<text text-anchor="middle" x="250.44" y="-182.3" font-family="Courier New" font-size="14.00">type: &lt;inherited contract&gt;.variable (bytes)</text>
<polyline fill="none" stroke="black" points="49.61,-174.1 451.27,-174.1 "/>
<text text-anchor="middle" x="124.82" y="-157.5" font-family="Courier New" font-size="14.00">unallocated (12)</text>
<polyline fill="none" stroke="black" points="200.03,-149.3 200.03,-174.1 "/>
<text text-anchor="middle" x="325.65" y="-157.5" font-family="Courier New" font-size="14.00">address: Ownable._owner (20)</text>
<polyline fill="none" stroke="black" points="49.61,-149.3 451.27,-149.3 "/>
<text text-anchor="middle" x="250.12" y="-132.7" font-family="Courier New" font-size="14.00">uint256: totalSupply (32)</text>
<polyline fill="none" stroke="black" points="49.61,-124.5 451.27,-124.5 "/>
<text text-anchor="middle" x="250.03" y="-107.9" font-family="Courier New" font-size="14.00">address[5]: administrators (160)</text>
<polyline fill="none" stroke="black" points="49.61,-99.7 451.27,-99.7 "/>
<text text-anchor="middle" x="139.32" y="-83.1" font-family="Courier New" font-size="14.00">unallocated (31)</text>
<polyline fill="none" stroke="black" points="229.03,-74.9 229.03,-99.7 "/>
<text text-anchor="middle" x="339.74" y="-83.1" font-family="Courier New" font-size="14.00">uint8: wasLastOdd (1)</text>
<polyline fill="none" stroke="black" points="49.61,-74.9 451.27,-74.9 "/>
<text text-anchor="middle" x="250.13" y="-58.3" font-family="Courier New" font-size="14.00">mapping(address=&gt;uint256): balances (32)</text>
<polyline fill="none" stroke="black" points="49.61,-50.1 451.27,-50.1 "/>
<text text-anchor="middle" x="250.33" y="-33.5" font-family="Courier New" font-size="14.00">mapping(address=&gt;uint256): whitelist (32)</text>
<polyline fill="none" stroke="black" points="49.61,-25.3 451.27,-25.3 "/>
<text text-anchor="middle" x="250.43" y="-8.7" font-family="Courier New" font-size="14.00">uint256: whiteListAmount (32)</text>
</g>
<!-- 1 -->
<g id="node2" class="node">
<title>1</title>
<polygon fill="#f2f2f2" stroke="black" points="487.27,-37.7 487.27,-186.5 805.71,-186.5 805.71,-37.7 487.27,-37.7"/>
<text text-anchor="middle" x="646.49" y="-169.9" font-family="Courier New" font-size="14.00">address[5]: administrators &lt;&lt;Array&gt;&gt;</text>
<polyline fill="none" stroke="black" points="487.27,-161.7 805.71,-161.7 "/>
<text text-anchor="middle" x="512.07" y="-145.1" font-family="Courier New" font-size="14.00">slot</text>
<polyline fill="none" stroke="black" points="487.27,-136.9 536.87,-136.9 "/>
<text text-anchor="middle" x="512.07" y="-120.3" font-family="Courier New" font-size="14.00">2</text>
<polyline fill="none" stroke="black" points="487.27,-112.1 536.87,-112.1 "/>
<text text-anchor="middle" x="512.07" y="-95.5" font-family="Courier New" font-size="14.00">3</text>
<polyline fill="none" stroke="black" points="487.27,-87.3 536.87,-87.3 "/>
<text text-anchor="middle" x="512.07" y="-70.7" font-family="Courier New" font-size="14.00">5</text>
<polyline fill="none" stroke="black" points="487.27,-62.5 536.87,-62.5 "/>
<text text-anchor="middle" x="512.07" y="-45.9" font-family="Courier New" font-size="14.00">6</text>
<polyline fill="none" stroke="black" points="536.87,-37.7 536.87,-161.7 "/>
<text text-anchor="middle" x="670.99" y="-145.1" font-family="Courier New" font-size="14.00">type: variable (bytes)</text>
<polyline fill="none" stroke="black" points="536.87,-136.9 805.11,-136.9 "/>
<text text-anchor="middle" x="612.08" y="-120.3" font-family="Courier New" font-size="14.00">unallocated (12)</text>
<polyline fill="none" stroke="black" points="687.29,-112.1 687.29,-136.9 "/>
<text text-anchor="middle" x="746.2" y="-120.3" font-family="Courier New" font-size="14.00">address (20)</text>
<polyline fill="none" stroke="black" points="536.87,-112.1 805.11,-112.1 "/>
<text text-anchor="middle" x="612.08" y="-95.5" font-family="Courier New" font-size="14.00">unallocated (12)</text>
<polyline fill="none" stroke="black" points="687.29,-87.3 687.29,-112.1 "/>
<text text-anchor="middle" x="746.2" y="-95.5" font-family="Courier New" font-size="14.00">address (20)</text>
<polyline fill="none" stroke="black" points="536.87,-87.3 805.11,-87.3 "/>
<text text-anchor="middle" x="612.08" y="-70.7" font-family="Courier New" font-size="14.00">unallocated (12)</text>
<polyline fill="none" stroke="black" points="687.29,-62.5 687.29,-87.3 "/>
<text text-anchor="middle" x="746.2" y="-70.7" font-family="Courier New" font-size="14.00">address (20)</text>
<polyline fill="none" stroke="black" points="536.87,-62.5 805.11,-62.5 "/>
<text text-anchor="middle" x="612.08" y="-45.9" font-family="Courier New" font-size="14.00">unallocated (12)</text>
<polyline fill="none" stroke="black" points="687.29,-37.7 687.29,-62.5 "/>
<text text-anchor="middle" x="746.2" y="-45.9" font-family="Courier New" font-size="14.00">address (20)</text>
</g>
<!-- 2&#45;&gt;1 -->
<g id="edge1" class="edge">
<title>2:7&#45;&gt;1</title>
<path fill="none" stroke="black" d="M451.27,-112.1C459.63,-112.1 468.19,-112.1 476.84,-112.1"/>
<polygon fill="black" stroke="black" points="477.02,-115.6 487.02,-112.1 477.02,-108.6 477.02,-115.6"/>
</g>
</g>
</svg>
