<?xml version="1.0" encoding="UTF-8" standalone="no"?>
<!DOCTYPE svg PUBLIC "-//W3C//DTD SVG 1.1//EN"
 "http://www.w3.org/Graphics/SVG/1.1/DTD/svg11.dtd">
<!-- Generated by graphviz version 5.0.0 (20220707.1540)
 -->
<!-- Title: StorageDiagram Pages: 1 -->
<svg width="2541pt" height="652pt"
 viewBox="0.00 0.00 2541.17 652.20" xmlns="http://www.w3.org/2000/svg" xmlns:xlink="http://www.w3.org/1999/xlink">
<g id="graph0" class="graph" transform="scale(1 1) rotate(0) translate(4 648.2)">
<title>StorageDiagram</title>
<polygon fill="white" stroke="transparent" points="-4,4 -4,-648.2 2537.17,-648.2 2537.17,4 -4,4"/>
<!-- 6 -->
<g id="node1" class="node">
<title>6</title>
<polygon fill="#f2f2f2" stroke="black" points="0,-201.9 0,-598.7 1012.55,-598.7 1012.55,-201.9 0,-201.9"/>
<text text-anchor="middle" x="506.28" y="-582.1" font-family="Courier New" font-size="14.00">GasContract &lt;&lt;Contract&gt;&gt;</text>
<polyline fill="none" stroke="black" points="0,-573.9 1012.55,-573.9 "/>
<text text-anchor="middle" x="24.8" y="-557.3" font-family="Courier New" font-size="14.00">slot</text>
<polyline fill="none" stroke="black" points="0,-549.1 49.61,-549.1 "/>
<text text-anchor="middle" x="24.8" y="-532.5" font-family="Courier New" font-size="14.00">0</text>
<polyline fill="none" stroke="black" points="0,-524.3 49.61,-524.3 "/>
<text text-anchor="middle" x="24.8" y="-507.7" font-family="Courier New" font-size="14.00">1</text>
<polyline fill="none" stroke="black" points="0,-499.5 49.61,-499.5 "/>
<text text-anchor="middle" x="24.8" y="-482.9" font-family="Courier New" font-size="14.00">2</text>
<polyline fill="none" stroke="black" points="0,-474.7 49.61,-474.7 "/>
<text text-anchor="middle" x="24.8" y="-458.1" font-family="Courier New" font-size="14.00">3</text>
<polyline fill="none" stroke="black" points="0,-449.9 49.61,-449.9 "/>
<text text-anchor="middle" x="24.8" y="-433.3" font-family="Courier New" font-size="14.00">4</text>
<polyline fill="none" stroke="black" points="0,-425.1 49.61,-425.1 "/>
<text text-anchor="middle" x="24.8" y="-408.5" font-family="Courier New" font-size="14.00">5&#45;9</text>
<polyline fill="none" stroke="black" points="0,-400.3 49.61,-400.3 "/>
<text text-anchor="middle" x="24.8" y="-383.7" font-family="Courier New" font-size="14.00">10</text>
<polyline fill="none" stroke="black" points="0,-375.5 49.61,-375.5 "/>
<text text-anchor="middle" x="24.8" y="-358.9" font-family="Courier New" font-size="14.00">11</text>
<polyline fill="none" stroke="black" points="0,-350.7 49.61,-350.7 "/>
<text text-anchor="middle" x="24.8" y="-334.1" font-family="Courier New" font-size="14.00">12</text>
<polyline fill="none" stroke="black" points="0,-325.9 49.61,-325.9 "/>
<text text-anchor="middle" x="24.8" y="-309.3" font-family="Courier New" font-size="14.00">13</text>
<polyline fill="none" stroke="black" points="0,-301.1 49.61,-301.1 "/>
<text text-anchor="middle" x="24.8" y="-284.5" font-family="Courier New" font-size="14.00">14</text>
<polyline fill="none" stroke="black" points="0,-276.3 49.61,-276.3 "/>
<text text-anchor="middle" x="24.8" y="-259.7" font-family="Courier New" font-size="14.00">15</text>
<polyline fill="none" stroke="black" points="0,-251.5 49.61,-251.5 "/>
<text text-anchor="middle" x="24.8" y="-234.9" font-family="Courier New" font-size="14.00">16</text>
<polyline fill="none" stroke="black" points="0,-226.7 49.61,-226.7 "/>
<text text-anchor="middle" x="24.8" y="-210.1" font-family="Courier New" font-size="14.00">17</text>
<polyline fill="none" stroke="black" points="49.61,-201.9 49.61,-573.9 "/>
<text text-anchor="middle" x="531.08" y="-557.3" font-family="Courier New" font-size="14.00">type: &lt;inherited contract&gt;.variable (bytes)</text>
<polyline fill="none" stroke="black" points="49.61,-549.1 1012.55,-549.1 "/>
<text text-anchor="middle" x="124.82" y="-532.5" font-family="Courier New" font-size="14.00">unallocated (10)</text>
<polyline fill="none" stroke="black" points="200.03,-524.3 200.03,-549.1 "/>
<text text-anchor="middle" x="346.65" y="-532.5" font-family="Courier New" font-size="14.00">uint8: Constants.dividendFlag (1)</text>
<polyline fill="none" stroke="black" points="493.27,-524.3 493.27,-549.1 "/>
<text text-anchor="middle" x="627.29" y="-532.5" font-family="Courier New" font-size="14.00">uint8: Constants.tradeFlag (1)</text>
<polyline fill="none" stroke="black" points="761.31,-524.3 761.31,-549.1 "/>
<text text-anchor="middle" x="886.93" y="-532.5" font-family="Courier New" font-size="14.00">address: Ownable._owner (20)</text>
<polyline fill="none" stroke="black" points="49.61,-524.3 1012.55,-524.3 "/>
<text text-anchor="middle" x="530.62" y="-507.7" font-family="Courier New" font-size="14.00">uint256: totalSupply (32)</text>
<polyline fill="none" stroke="black" points="49.61,-499.5 1012.55,-499.5 "/>
<text text-anchor="middle" x="530.72" y="-482.9" font-family="Courier New" font-size="14.00">uint256: paymentCounter (32)</text>
<polyline fill="none" stroke="black" points="49.61,-474.7 1012.55,-474.7 "/>
<text text-anchor="middle" x="530.82" y="-458.1" font-family="Courier New" font-size="14.00">uint256: tradePercent (32)</text>
<polyline fill="none" stroke="black" points="49.61,-449.9 1012.55,-449.9 "/>
<text text-anchor="middle" x="530.72" y="-433.3" font-family="Courier New" font-size="14.00">uint256: tradeMode (32)</text>
<polyline fill="none" stroke="black" points="49.61,-425.1 1012.55,-425.1 "/>
<text text-anchor="middle" x="531.03" y="-408.5" font-family="Courier New" font-size="14.00">address[5]: administrators (160)</text>
<polyline fill="none" stroke="black" points="49.61,-400.3 1012.55,-400.3 "/>
<text text-anchor="middle" x="192.82" y="-383.7" font-family="Courier New" font-size="14.00">unallocated (11)</text>
<polyline fill="none" stroke="black" points="336.03,-375.5 336.03,-400.3 "/>
<text text-anchor="middle" x="483.94" y="-383.7" font-family="Courier New" font-size="14.00">bool: isReady (1)</text>
<polyline fill="none" stroke="black" points="631.85,-375.5 631.85,-400.3 "/>
<text text-anchor="middle" x="821.77" y="-383.7" font-family="Courier New" font-size="14.00">address: contractOwner (20)</text>
<polyline fill="none" stroke="black" points="49.61,-375.5 1012.55,-375.5 "/>
<text text-anchor="middle" x="530.63" y="-358.9" font-family="Courier New" font-size="14.00">mapping(address=&gt;uint256): balances (32)</text>
<polyline fill="none" stroke="black" points="49.61,-350.7 1012.55,-350.7 "/>
<text text-anchor="middle" x="531.03" y="-334.1" font-family="Courier New" font-size="14.00">mapping(address=&gt;Payment[]): payments (32)</text>
<polyline fill="none" stroke="black" points="49.61,-325.9 1012.55,-325.9 "/>
<text text-anchor="middle" x="530.83" y="-309.3" font-family="Courier New" font-size="14.00">mapping(address=&gt;uint256): whitelist (32)</text>
<polyline fill="none" stroke="black" points="49.61,-301.1 1012.55,-301.1 "/>
<text text-anchor="middle" x="530.63" y="-284.5" font-family="Courier New" font-size="14.00">History[]: paymentHistory (32)</text>
<polyline fill="none" stroke="black" points="49.61,-276.3 1012.55,-276.3 "/>
<text text-anchor="middle" x="530.92" y="-259.7" font-family="Courier New" font-size="14.00">uint256: wasLastOdd (32)</text>
<polyline fill="none" stroke="black" points="49.61,-251.5 1012.55,-251.5 "/>
<text text-anchor="middle" x="530.64" y="-234.9" font-family="Courier New" font-size="14.00">mapping(address=&gt;uint256): isOddWhitelistUser (32)</text>
<polyline fill="none" stroke="black" points="49.61,-226.7 1012.55,-226.7 "/>
<text text-anchor="middle" x="530.64" y="-210.1" font-family="Courier New" font-size="14.00">mapping(address=&gt;ImportantStruct): whiteListStruct (32)</text>
</g>
<!-- 1 -->
<g id="node2" class="node">
<title>1</title>
<polygon fill="#f2f2f2" stroke="black" points="1328.39,-494.9 1328.39,-643.7 1646.84,-643.7 1646.84,-494.9 1328.39,-494.9"/>
<text text-anchor="middle" x="1487.62" y="-627.1" font-family="Courier New" font-size="14.00">address[5]: administrators &lt;&lt;Array&gt;&gt;</text>
<polyline fill="none" stroke="black" points="1328.39,-618.9 1646.84,-618.9 "/>
<text text-anchor="middle" x="1353.19" y="-602.3" font-family="Courier New" font-size="14.00">slot</text>
<polyline fill="none" stroke="black" points="1328.39,-594.1 1378,-594.1 "/>
<text text-anchor="middle" x="1353.19" y="-577.5" font-family="Courier New" font-size="14.00">5</text>
<polyline fill="none" stroke="black" points="1328.39,-569.3 1378,-569.3 "/>
<text text-anchor="middle" x="1353.19" y="-552.7" font-family="Courier New" font-size="14.00">6</text>
<polyline fill="none" stroke="black" points="1328.39,-544.5 1378,-544.5 "/>
<text text-anchor="middle" x="1353.19" y="-527.9" font-family="Courier New" font-size="14.00">8</text>
<polyline fill="none" stroke="black" points="1328.39,-519.7 1378,-519.7 "/>
<text text-anchor="middle" x="1353.19" y="-503.1" font-family="Courier New" font-size="14.00">9</text>
<polyline fill="none" stroke="black" points="1378,-494.9 1378,-618.9 "/>
<text text-anchor="middle" x="1512.12" y="-602.3" font-family="Courier New" font-size="14.00">type: variable (bytes)</text>
<polyline fill="none" stroke="black" points="1378,-594.1 1646.24,-594.1 "/>
<text text-anchor="middle" x="1453.21" y="-577.5" font-family="Courier New" font-size="14.00">unallocated (12)</text>
<polyline fill="none" stroke="black" points="1528.42,-569.3 1528.42,-594.1 "/>
<text text-anchor="middle" x="1587.33" y="-577.5" font-family="Courier New" font-size="14.00">address (20)</text>
<polyline fill="none" stroke="black" points="1378,-569.3 1646.24,-569.3 "/>
<text text-anchor="middle" x="1453.21" y="-552.7" font-family="Courier New" font-size="14.00">unallocated (12)</text>
<polyline fill="none" stroke="black" points="1528.42,-544.5 1528.42,-569.3 "/>
<text text-anchor="middle" x="1587.33" y="-552.7" font-family="Courier New" font-size="14.00">address (20)</text>
<polyline fill="none" stroke="black" points="1378,-544.5 1646.24,-544.5 "/>
<text text-anchor="middle" x="1453.21" y="-527.9" font-family="Courier New" font-size="14.00">unallocated (12)</text>
<polyline fill="none" stroke="black" points="1528.42,-519.7 1528.42,-544.5 "/>
<text text-anchor="middle" x="1587.33" y="-527.9" font-family="Courier New" font-size="14.00">address (20)</text>
<polyline fill="none" stroke="black" points="1378,-519.7 1646.24,-519.7 "/>
<text text-anchor="middle" x="1453.21" y="-503.1" font-family="Courier New" font-size="14.00">unallocated (12)</text>
<polyline fill="none" stroke="black" points="1528.42,-494.9 1528.42,-519.7 "/>
<text text-anchor="middle" x="1587.33" y="-503.1" font-family="Courier New" font-size="14.00">address (20)</text>
</g>
<!-- 6&#45;&gt;1 -->
<g id="edge1" class="edge">
<title>6:12&#45;&gt;1</title>
<path fill="none" stroke="black" d="M1012.55,-412.3C1048.73,-412.3 1019.78,-463.38 1048.55,-485.3 1124.92,-543.48 1230.05,-565.01 1318.18,-571.74"/>
<polygon fill="black" stroke="black" points="1318.07,-575.24 1328.3,-572.46 1318.57,-568.26 1318.07,-575.24"/>
</g>
<!-- 2 -->
<g id="node3" class="node">
<title>2</title>
<polygon fill="#f2f2f2" stroke="black" points="1048.55,-302.5 1048.55,-476.1 1926.68,-476.1 1926.68,-302.5 1048.55,-302.5"/>
<text text-anchor="middle" x="1487.62" y="-459.5" font-family="Courier New" font-size="14.00">Payment &lt;&lt;Struct&gt;&gt;</text>
<polyline fill="none" stroke="black" points="1048.55,-451.3 1926.68,-451.3 "/>
<text text-anchor="middle" x="1081.76" y="-434.7" font-family="Courier New" font-size="14.00">offset</text>
<polyline fill="none" stroke="black" points="1048.55,-426.5 1114.96,-426.5 "/>
<text text-anchor="middle" x="1081.76" y="-409.9" font-family="Courier New" font-size="14.00">0</text>
<polyline fill="none" stroke="black" points="1048.55,-401.7 1114.96,-401.7 "/>
<text text-anchor="middle" x="1081.76" y="-385.1" font-family="Courier New" font-size="14.00">1</text>
<polyline fill="none" stroke="black" points="1048.55,-376.9 1114.96,-376.9 "/>
<text text-anchor="middle" x="1081.76" y="-360.3" font-family="Courier New" font-size="14.00">2</text>
<polyline fill="none" stroke="black" points="1048.55,-352.1 1114.96,-352.1 "/>
<text text-anchor="middle" x="1081.76" y="-335.5" font-family="Courier New" font-size="14.00">3</text>
<polyline fill="none" stroke="black" points="1048.55,-327.3 1114.96,-327.3 "/>
<text text-anchor="middle" x="1081.76" y="-310.7" font-family="Courier New" font-size="14.00">4</text>
<polyline fill="none" stroke="black" points="1114.96,-302.5 1114.96,-451.3 "/>
<text text-anchor="middle" x="1520.82" y="-434.7" font-family="Courier New" font-size="14.00">type: variable (bytes)</text>
<polyline fill="none" stroke="black" points="1114.96,-426.5 1926.68,-426.5 "/>
<text text-anchor="middle" x="1190.17" y="-409.9" font-family="Courier New" font-size="14.00">unallocated (10)</text>
<polyline fill="none" stroke="black" points="1265.38,-401.7 1265.38,-426.5 "/>
<text text-anchor="middle" x="1370" y="-409.9" font-family="Courier New" font-size="14.00">address: recipient (20)</text>
<polyline fill="none" stroke="black" points="1474.61,-401.7 1474.61,-426.5 "/>
<text text-anchor="middle" x="1575.03" y="-409.9" font-family="Courier New" font-size="14.00">bool: adminUpdated (1)</text>
<polyline fill="none" stroke="black" points="1675.44,-401.7 1675.44,-426.5 "/>
<text text-anchor="middle" x="1801.06" y="-409.9" font-family="Courier New" font-size="14.00">PaymentType: paymentType (1)</text>
<polyline fill="none" stroke="black" points="1114.96,-401.7 1926.68,-401.7 "/>
<text text-anchor="middle" x="1311.17" y="-385.1" font-family="Courier New" font-size="14.00">unallocated (12)</text>
<polyline fill="none" stroke="black" points="1507.38,-376.9 1507.38,-401.7 "/>
<text text-anchor="middle" x="1716.69" y="-385.1" font-family="Courier New" font-size="14.00">address: admin (20)</text>
<polyline fill="none" stroke="black" points="1114.96,-376.9 1926.68,-376.9 "/>
<text text-anchor="middle" x="1520.68" y="-360.3" font-family="Courier New" font-size="14.00">string: recipientName (32)</text>
<polyline fill="none" stroke="black" points="1114.96,-352.1 1926.68,-352.1 "/>
<text text-anchor="middle" x="1520.58" y="-335.5" font-family="Courier New" font-size="14.00">uint256: paymentID (32)</text>
<polyline fill="none" stroke="black" points="1114.96,-327.3 1926.68,-327.3 "/>
<text text-anchor="middle" x="1520.47" y="-310.7" font-family="Courier New" font-size="14.00">uint256: amount (32)</text>
</g>
<!-- 6&#45;&gt;2 -->
<g id="edge2" class="edge">
<title>6:23&#45;&gt;2</title>
<path fill="none" stroke="black" d="M1012.55,-338.3C1021.03,-338.3 1029.59,-338.38 1038.21,-338.54"/>
<polygon fill="black" stroke="black" points="1038.28,-342.04 1048.35,-338.76 1038.43,-335.04 1038.28,-342.04"/>
</g>
<!-- 4 -->
<g id="node5" class="node">
<title>4</title>
<polygon fill="#f2f2f2" stroke="black" points="1202.37,-192.7 1202.37,-283.9 1772.86,-283.9 1772.86,-192.7 1202.37,-192.7"/>
<text text-anchor="middle" x="1487.62" y="-267.3" font-family="Courier New" font-size="14.00">History[]: paymentHistory &lt;&lt;Array&gt;&gt;</text>
<text text-anchor="middle" x="1487.62" y="-250.5" font-family="Courier New" font-size="14.00">0xbb7b4a454dc3493923482f07822329ed19e8244eff582cc204f8554c3620c3fd</text>
<polyline fill="none" stroke="black" points="1202.37,-242.3 1772.86,-242.3 "/>
<text text-anchor="middle" x="1311.08" y="-225.7" font-family="Courier New" font-size="14.00">offset</text>
<polyline fill="none" stroke="black" points="1202.37,-217.5 1419.78,-217.5 "/>
<text text-anchor="middle" x="1311.08" y="-200.9" font-family="Courier New" font-size="14.00">0&#45;2</text>
<polyline fill="none" stroke="black" points="1419.78,-192.7 1419.78,-242.3 "/>
<text text-anchor="middle" x="1596.19" y="-225.7" font-family="Courier New" font-size="14.00">type: variable (bytes)</text>
<polyline fill="none" stroke="black" points="1419.78,-217.5 1772.61,-217.5 "/>
<text text-anchor="middle" x="1596.19" y="-200.9" font-family="Courier New" font-size="14.00">History (96)</text>
</g>
<!-- 6&#45;&gt;4 -->
<g id="edge3" class="edge">
<title>6:29&#45;&gt;4</title>
<path fill="none" stroke="black" d="M1012.28,-288.3C1070.5,-288.3 1132.51,-284.53 1191.85,-279.06"/>
<polygon fill="black" stroke="black" points="1192.5,-282.51 1202.12,-278.09 1191.84,-275.54 1192.5,-282.51"/>
</g>
<!-- 5 -->
<g id="node6" class="node">
<title>5</title>
<polygon fill="#f2f2f2" stroke="black" points="1182.57,-0.5 1182.57,-174.1 1792.66,-174.1 1792.66,-0.5 1182.57,-0.5"/>
<text text-anchor="middle" x="1487.62" y="-157.5" font-family="Courier New" font-size="14.00">ImportantStruct &lt;&lt;Struct&gt;&gt;</text>
<polyline fill="none" stroke="black" points="1182.57,-149.3 1792.66,-149.3 "/>
<text text-anchor="middle" x="1215.78" y="-132.7" font-family="Courier New" font-size="14.00">offset</text>
<polyline fill="none" stroke="black" points="1182.57,-124.5 1248.98,-124.5 "/>
<text text-anchor="middle" x="1215.78" y="-107.9" font-family="Courier New" font-size="14.00">0</text>
<polyline fill="none" stroke="black" points="1182.57,-99.7 1248.98,-99.7 "/>
<text text-anchor="middle" x="1215.78" y="-83.1" font-family="Courier New" font-size="14.00">1</text>
<polyline fill="none" stroke="black" points="1182.57,-74.9 1248.98,-74.9 "/>
<text text-anchor="middle" x="1215.78" y="-58.3" font-family="Courier New" font-size="14.00">2</text>
<polyline fill="none" stroke="black" points="1182.57,-50.1 1248.98,-50.1 "/>
<text text-anchor="middle" x="1215.78" y="-33.5" font-family="Courier New" font-size="14.00">3</text>
<polyline fill="none" stroke="black" points="1182.57,-25.3 1248.98,-25.3 "/>
<text text-anchor="middle" x="1215.78" y="-8.7" font-family="Courier New" font-size="14.00">4</text>
<polyline fill="none" stroke="black" points="1248.98,-0.5 1248.98,-149.3 "/>
<text text-anchor="middle" x="1520.82" y="-132.7" font-family="Courier New" font-size="14.00">type: variable (bytes)</text>
<polyline fill="none" stroke="black" points="1248.98,-124.5 1792.66,-124.5 "/>
<text text-anchor="middle" x="1520.49" y="-107.9" font-family="Courier New" font-size="14.00">uint256: amount (32)</text>
<polyline fill="none" stroke="black" points="1248.98,-99.7 1792.66,-99.7 "/>
<text text-anchor="middle" x="1520.49" y="-83.1" font-family="Courier New" font-size="14.00">uint256: valueA (32)</text>
<polyline fill="none" stroke="black" points="1248.98,-74.9 1792.66,-74.9 "/>
<text text-anchor="middle" x="1520.4" y="-58.3" font-family="Courier New" font-size="14.00">uint256: bigValue (32)</text>
<polyline fill="none" stroke="black" points="1248.98,-50.1 1792.66,-50.1 "/>
<text text-anchor="middle" x="1520.49" y="-33.5" font-family="Courier New" font-size="14.00">uint256: valueB (32)</text>
<polyline fill="none" stroke="black" points="1248.98,-25.3 1792.66,-25.3 "/>
<text text-anchor="middle" x="1324.19" y="-8.7" font-family="Courier New" font-size="14.00">unallocated (11)</text>
<polyline fill="none" stroke="black" points="1399.4,-0.5 1399.4,-25.3 "/>
<text text-anchor="middle" x="1491.42" y="-8.7" font-family="Courier New" font-size="14.00">address: sender (20)</text>
<polyline fill="none" stroke="black" points="1583.43,-0.5 1583.43,-25.3 "/>
<text text-anchor="middle" x="1688.05" y="-8.7" font-family="Courier New" font-size="14.00">bool: paymentStatus (1)</text>
</g>
<!-- 6&#45;&gt;5 -->
<g id="edge4" class="edge">
<title>6:38&#45;&gt;5</title>
<path fill="none" stroke="black" d="M1012.28,-214.3C1033.48,-214.3 1029.56,-192.74 1048.55,-183.3 1087.28,-164.04 1129.82,-148.62 1172.71,-136.28"/>
<polygon fill="black" stroke="black" points="1173.77,-139.62 1182.44,-133.54 1171.87,-132.88 1173.77,-139.62"/>
</g>
<!-- 3 -->
<g id="node4" class="node">
<title>3</title>
<polygon fill="#f2f2f2" stroke="black" points="1962.68,-134.9 1962.68,-275.7 2533.17,-275.7 2533.17,-134.9 1962.68,-134.9"/>
<text text-anchor="middle" x="2247.93" y="-259.1" font-family="Courier New" font-size="14.00">History &lt;&lt;Struct&gt;&gt;</text>
<text text-anchor="middle" x="2247.93" y="-242.3" font-family="Courier New" font-size="14.00">0xbb7b4a454dc3493923482f07822329ed19e8244eff582cc204f8554c3620c3fd</text>
<polyline fill="none" stroke="black" points="1962.68,-234.1 2533.17,-234.1 "/>
<text text-anchor="middle" x="2031.89" y="-217.5" font-family="Courier New" font-size="14.00">offset</text>
<polyline fill="none" stroke="black" points="1962.68,-209.3 2101.09,-209.3 "/>
<text text-anchor="middle" x="2031.89" y="-192.7" font-family="Courier New" font-size="14.00">0</text>
<polyline fill="none" stroke="black" points="1962.68,-184.5 2101.09,-184.5 "/>
<text text-anchor="middle" x="2031.89" y="-167.9" font-family="Courier New" font-size="14.00">1</text>
<polyline fill="none" stroke="black" points="1962.68,-159.7 2101.09,-159.7 "/>
<text text-anchor="middle" x="2031.89" y="-143.1" font-family="Courier New" font-size="14.00">2</text>
<polyline fill="none" stroke="black" points="2101.09,-134.9 2101.09,-234.1 "/>
<text text-anchor="middle" x="2316.92" y="-217.5" font-family="Courier New" font-size="14.00">type: variable (bytes)</text>
<polyline fill="none" stroke="black" points="2101.09,-209.3 2532.74,-209.3 "/>
<text text-anchor="middle" x="2316.91" y="-192.7" font-family="Courier New" font-size="14.00">uint256: lastUpdate (32)</text>
<polyline fill="none" stroke="black" points="2101.09,-184.5 2532.74,-184.5 "/>
<text text-anchor="middle" x="2194.3" y="-167.9" font-family="Courier New" font-size="14.00">unallocated (12)</text>
<polyline fill="none" stroke="black" points="2287.51,-159.7 2287.51,-184.5 "/>
<text text-anchor="middle" x="2410.13" y="-167.9" font-family="Courier New" font-size="14.00">address: updatedBy (20)</text>
<polyline fill="none" stroke="black" points="2101.09,-159.7 2532.74,-159.7 "/>
<text text-anchor="middle" x="2316.61" y="-143.1" font-family="Courier New" font-size="14.00">uint256: blockNumber (32)</text>
</g>
<!-- 4&#45;&gt;3 -->
<g id="edge5" class="edge">
<title>4:28&#45;&gt;3</title>
<path fill="none" stroke="black" d="M1773.62,-205.3C1831.39,-205.3 1893.13,-205.3 1952.3,-205.3"/>
<polygon fill="black" stroke="black" points="1952.54,-208.8 1962.54,-205.3 1952.54,-201.8 1952.54,-208.8"/>
</g>
</g>
</svg>
