<?xml version="1.0" encoding="UTF-8" standalone="no"?>
<!DOCTYPE svg PUBLIC "-//W3C//DTD SVG 1.1//EN"
 "http://www.w3.org/Graphics/SVG/1.1/DTD/svg11.dtd">
<!-- Generated by graphviz version 5.0.0 (20220707.1540)
 -->
<!-- Title: StorageDiagram Pages: 1 -->
<svg width="2098pt" height="603pt"
 viewBox="0.00 0.00 2097.50 603.40" xmlns="http://www.w3.org/2000/svg" xmlns:xlink="http://www.w3.org/1999/xlink">
<g id="graph0" class="graph" transform="scale(1 1) rotate(0) translate(4 599.4)">
<title>StorageDiagram</title>
<polygon fill="white" stroke="transparent" points="-4,4 -4,-599.4 2093.5,-599.4 2093.5,4 -4,4"/>
<!-- 6 -->
<g id="node1" class="node">
<title>6</title>
<polygon fill="#f2f2f2" stroke="black" points="0,-153.3 0,-475.7 527.68,-475.7 527.68,-153.3 0,-153.3"/>
<text text-anchor="middle" x="263.84" y="-459.1" font-family="Courier New" font-size="14.00">GasContract &lt;&lt;Contract&gt;&gt;</text>
<polyline fill="none" stroke="black" points="0,-450.9 527.68,-450.9 "/>
<text text-anchor="middle" x="24.8" y="-434.3" font-family="Courier New" font-size="14.00">slot</text>
<polyline fill="none" stroke="black" points="0,-426.1 49.61,-426.1 "/>
<text text-anchor="middle" x="24.8" y="-409.5" font-family="Courier New" font-size="14.00">0</text>
<polyline fill="none" stroke="black" points="0,-401.3 49.61,-401.3 "/>
<text text-anchor="middle" x="24.8" y="-384.7" font-family="Courier New" font-size="14.00">1</text>
<polyline fill="none" stroke="black" points="0,-376.5 49.61,-376.5 "/>
<text text-anchor="middle" x="24.8" y="-359.9" font-family="Courier New" font-size="14.00">2</text>
<polyline fill="none" stroke="black" points="0,-351.7 49.61,-351.7 "/>
<text text-anchor="middle" x="24.8" y="-335.1" font-family="Courier New" font-size="14.00">3&#45;7</text>
<polyline fill="none" stroke="black" points="0,-326.9 49.61,-326.9 "/>
<text text-anchor="middle" x="24.8" y="-310.3" font-family="Courier New" font-size="14.00">8</text>
<polyline fill="none" stroke="black" points="0,-302.1 49.61,-302.1 "/>
<text text-anchor="middle" x="24.8" y="-285.5" font-family="Courier New" font-size="14.00">9</text>
<polyline fill="none" stroke="black" points="0,-277.3 49.61,-277.3 "/>
<text text-anchor="middle" x="24.8" y="-260.7" font-family="Courier New" font-size="14.00">10</text>
<polyline fill="none" stroke="black" points="0,-252.5 49.61,-252.5 "/>
<text text-anchor="middle" x="24.8" y="-235.9" font-family="Courier New" font-size="14.00">11</text>
<polyline fill="none" stroke="black" points="0,-227.7 49.61,-227.7 "/>
<text text-anchor="middle" x="24.8" y="-211.1" font-family="Courier New" font-size="14.00">12</text>
<polyline fill="none" stroke="black" points="0,-202.9 49.61,-202.9 "/>
<text text-anchor="middle" x="24.8" y="-186.3" font-family="Courier New" font-size="14.00">13</text>
<polyline fill="none" stroke="black" points="0,-178.1 49.61,-178.1 "/>
<text text-anchor="middle" x="24.8" y="-161.5" font-family="Courier New" font-size="14.00">14</text>
<polyline fill="none" stroke="black" points="49.61,-153.3 49.61,-450.9 "/>
<text text-anchor="middle" x="288.64" y="-434.3" font-family="Courier New" font-size="14.00">type: &lt;inherited contract&gt;.variable (bytes)</text>
<polyline fill="none" stroke="black" points="49.61,-426.1 527.68,-426.1 "/>
<text text-anchor="middle" x="143.82" y="-409.5" font-family="Courier New" font-size="14.00">unallocated (12)</text>
<polyline fill="none" stroke="black" points="238.03,-401.3 238.03,-426.1 "/>
<text text-anchor="middle" x="382.65" y="-409.5" font-family="Courier New" font-size="14.00">address: Ownable._owner (20)</text>
<polyline fill="none" stroke="black" points="49.61,-401.3 527.68,-401.3 "/>
<text text-anchor="middle" x="288.62" y="-384.7" font-family="Courier New" font-size="14.00">uint256: totalSupply (32)</text>
<polyline fill="none" stroke="black" points="49.61,-376.5 527.68,-376.5 "/>
<text text-anchor="middle" x="288.22" y="-359.9" font-family="Courier New" font-size="14.00">uint256: paymentCounter (32)</text>
<polyline fill="none" stroke="black" points="49.61,-351.7 527.68,-351.7 "/>
<text text-anchor="middle" x="288.53" y="-335.1" font-family="Courier New" font-size="14.00">address[5]: administrators (160)</text>
<polyline fill="none" stroke="black" points="49.61,-326.9 527.68,-326.9 "/>
<text text-anchor="middle" x="288.63" y="-310.3" font-family="Courier New" font-size="14.00">mapping(address=&gt;uint256): balances (32)</text>
<polyline fill="none" stroke="black" points="49.61,-302.1 527.68,-302.1 "/>
<text text-anchor="middle" x="288.53" y="-285.5" font-family="Courier New" font-size="14.00">mapping(address=&gt;Payment[]): payments (32)</text>
<polyline fill="none" stroke="black" points="49.61,-277.3 527.68,-277.3 "/>
<text text-anchor="middle" x="288.33" y="-260.7" font-family="Courier New" font-size="14.00">mapping(address=&gt;uint256): whitelist (32)</text>
<polyline fill="none" stroke="black" points="49.61,-252.5 527.68,-252.5 "/>
<text text-anchor="middle" x="288.63" y="-235.9" font-family="Courier New" font-size="14.00">History[]: paymentHistory (32)</text>
<polyline fill="none" stroke="black" points="49.61,-227.7 527.68,-227.7 "/>
<text text-anchor="middle" x="158.32" y="-211.1" font-family="Courier New" font-size="14.00">unallocated (31)</text>
<polyline fill="none" stroke="black" points="267.03,-202.9 267.03,-227.7 "/>
<text text-anchor="middle" x="397.24" y="-211.1" font-family="Courier New" font-size="14.00">uint8: wasLastOdd (1)</text>
<polyline fill="none" stroke="black" points="49.61,-202.9 527.68,-202.9 "/>
<text text-anchor="middle" x="288.24" y="-186.3" font-family="Courier New" font-size="14.00">mapping(address=&gt;uint8): isOddWhitelistUser (32)</text>
<polyline fill="none" stroke="black" points="49.61,-178.1 527.68,-178.1 "/>
<text text-anchor="middle" x="288.64" y="-161.5" font-family="Courier New" font-size="14.00">mapping(address=&gt;ImportantStruct): whiteListStruct (32)</text>
</g>
<!-- 1 -->
<g id="node2" class="node">
<title>1</title>
<polygon fill="#f2f2f2" stroke="black" points="864.12,-446.1 864.12,-594.9 1182.57,-594.9 1182.57,-446.1 864.12,-446.1"/>
<text text-anchor="middle" x="1023.35" y="-578.3" font-family="Courier New" font-size="14.00">address[5]: administrators &lt;&lt;Array&gt;&gt;</text>
<polyline fill="none" stroke="black" points="864.12,-570.1 1182.57,-570.1 "/>
<text text-anchor="middle" x="888.93" y="-553.5" font-family="Courier New" font-size="14.00">slot</text>
<polyline fill="none" stroke="black" points="864.12,-545.3 913.73,-545.3 "/>
<text text-anchor="middle" x="888.93" y="-528.7" font-family="Courier New" font-size="14.00">3</text>
<polyline fill="none" stroke="black" points="864.12,-520.5 913.73,-520.5 "/>
<text text-anchor="middle" x="888.93" y="-503.9" font-family="Courier New" font-size="14.00">4</text>
<polyline fill="none" stroke="black" points="864.12,-495.7 913.73,-495.7 "/>
<text text-anchor="middle" x="888.93" y="-479.1" font-family="Courier New" font-size="14.00">6</text>
<polyline fill="none" stroke="black" points="864.12,-470.9 913.73,-470.9 "/>
<text text-anchor="middle" x="888.93" y="-454.3" font-family="Courier New" font-size="14.00">7</text>
<polyline fill="none" stroke="black" points="913.73,-446.1 913.73,-570.1 "/>
<text text-anchor="middle" x="1047.85" y="-553.5" font-family="Courier New" font-size="14.00">type: variable (bytes)</text>
<polyline fill="none" stroke="black" points="913.73,-545.3 1181.97,-545.3 "/>
<text text-anchor="middle" x="988.94" y="-528.7" font-family="Courier New" font-size="14.00">unallocated (12)</text>
<polyline fill="none" stroke="black" points="1064.15,-520.5 1064.15,-545.3 "/>
<text text-anchor="middle" x="1123.06" y="-528.7" font-family="Courier New" font-size="14.00">address (20)</text>
<polyline fill="none" stroke="black" points="913.73,-520.5 1181.97,-520.5 "/>
<text text-anchor="middle" x="988.94" y="-503.9" font-family="Courier New" font-size="14.00">unallocated (12)</text>
<polyline fill="none" stroke="black" points="1064.15,-495.7 1064.15,-520.5 "/>
<text text-anchor="middle" x="1123.06" y="-503.9" font-family="Courier New" font-size="14.00">address (20)</text>
<polyline fill="none" stroke="black" points="913.73,-495.7 1181.97,-495.7 "/>
<text text-anchor="middle" x="988.94" y="-479.1" font-family="Courier New" font-size="14.00">unallocated (12)</text>
<polyline fill="none" stroke="black" points="1064.15,-470.9 1064.15,-495.7 "/>
<text text-anchor="middle" x="1123.06" y="-479.1" font-family="Courier New" font-size="14.00">address (20)</text>
<polyline fill="none" stroke="black" points="913.73,-470.9 1181.97,-470.9 "/>
<text text-anchor="middle" x="988.94" y="-454.3" font-family="Courier New" font-size="14.00">unallocated (12)</text>
<polyline fill="none" stroke="black" points="1064.15,-446.1 1064.15,-470.9 "/>
<text text-anchor="middle" x="1123.06" y="-454.3" font-family="Courier New" font-size="14.00">address (20)</text>
</g>
<!-- 6&#45;&gt;1 -->
<g id="edge1" class="edge">
<title>6:8&#45;&gt;1</title>
<path fill="none" stroke="black" d="M527.68,-339.5C573.67,-339.5 528.46,-406.94 563.68,-436.5 643.48,-503.48 758.96,-524.34 854.08,-528.53"/>
<polygon fill="black" stroke="black" points="853.98,-532.03 864.1,-528.92 854.25,-525.04 853.98,-532.03"/>
</g>
<!-- 2 -->
<g id="node3" class="node">
<title>2</title>
<polygon fill="#f2f2f2" stroke="black" points="584.28,-253.7 584.28,-427.3 1462.41,-427.3 1462.41,-253.7 584.28,-253.7"/>
<text text-anchor="middle" x="1023.35" y="-410.7" font-family="Courier New" font-size="14.00">Payment &lt;&lt;Struct&gt;&gt;</text>
<polyline fill="none" stroke="black" points="584.28,-402.5 1462.41,-402.5 "/>
<text text-anchor="middle" x="617.49" y="-385.9" font-family="Courier New" font-size="14.00">offset</text>
<polyline fill="none" stroke="black" points="584.28,-377.7 650.69,-377.7 "/>
<text text-anchor="middle" x="617.49" y="-361.1" font-family="Courier New" font-size="14.00">0</text>
<polyline fill="none" stroke="black" points="584.28,-352.9 650.69,-352.9 "/>
<text text-anchor="middle" x="617.49" y="-336.3" font-family="Courier New" font-size="14.00">1</text>
<polyline fill="none" stroke="black" points="584.28,-328.1 650.69,-328.1 "/>
<text text-anchor="middle" x="617.49" y="-311.5" font-family="Courier New" font-size="14.00">2</text>
<polyline fill="none" stroke="black" points="584.28,-303.3 650.69,-303.3 "/>
<text text-anchor="middle" x="617.49" y="-286.7" font-family="Courier New" font-size="14.00">3</text>
<polyline fill="none" stroke="black" points="584.28,-278.5 650.69,-278.5 "/>
<text text-anchor="middle" x="617.49" y="-261.9" font-family="Courier New" font-size="14.00">4</text>
<polyline fill="none" stroke="black" points="650.69,-253.7 650.69,-402.5 "/>
<text text-anchor="middle" x="1056.55" y="-385.9" font-family="Courier New" font-size="14.00">type: variable (bytes)</text>
<polyline fill="none" stroke="black" points="650.69,-377.7 1462.41,-377.7 "/>
<text text-anchor="middle" x="725.9" y="-361.1" font-family="Courier New" font-size="14.00">unallocated (10)</text>
<polyline fill="none" stroke="black" points="801.11,-352.9 801.11,-377.7 "/>
<text text-anchor="middle" x="905.73" y="-361.1" font-family="Courier New" font-size="14.00">address: recipient (20)</text>
<polyline fill="none" stroke="black" points="1010.34,-352.9 1010.34,-377.7 "/>
<text text-anchor="middle" x="1110.76" y="-361.1" font-family="Courier New" font-size="14.00">bool: adminUpdated (1)</text>
<polyline fill="none" stroke="black" points="1211.17,-352.9 1211.17,-377.7 "/>
<text text-anchor="middle" x="1336.79" y="-361.1" font-family="Courier New" font-size="14.00">PaymentType: paymentType (1)</text>
<polyline fill="none" stroke="black" points="650.69,-352.9 1462.41,-352.9 "/>
<text text-anchor="middle" x="846.9" y="-336.3" font-family="Courier New" font-size="14.00">unallocated (12)</text>
<polyline fill="none" stroke="black" points="1043.11,-328.1 1043.11,-352.9 "/>
<text text-anchor="middle" x="1252.43" y="-336.3" font-family="Courier New" font-size="14.00">address: admin (20)</text>
<polyline fill="none" stroke="black" points="650.69,-328.1 1462.41,-328.1 "/>
<text text-anchor="middle" x="1056.41" y="-311.5" font-family="Courier New" font-size="14.00">string: recipientName (32)</text>
<polyline fill="none" stroke="black" points="650.69,-303.3 1462.41,-303.3 "/>
<text text-anchor="middle" x="1056.31" y="-286.7" font-family="Courier New" font-size="14.00">uint256: paymentID (32)</text>
<polyline fill="none" stroke="black" points="650.69,-278.5 1462.41,-278.5 "/>
<text text-anchor="middle" x="1056.2" y="-261.9" font-family="Courier New" font-size="14.00">uint256: amount (32)</text>
</g>
<!-- 6&#45;&gt;2 -->
<g id="edge2" class="edge">
<title>6:17&#45;&gt;2</title>
<path fill="none" stroke="black" d="M527.68,-289.5C542.82,-289.5 558.2,-289.74 573.73,-290.18"/>
<polygon fill="black" stroke="black" points="573.85,-293.69 583.95,-290.51 574.07,-286.69 573.85,-293.69"/>
</g>
<!-- 4 -->
<g id="node5" class="node">
<title>4</title>
<polygon fill="#f2f2f2" stroke="black" points="738.1,-143.9 738.1,-235.1 1308.59,-235.1 1308.59,-143.9 738.1,-143.9"/>
<text text-anchor="middle" x="1023.35" y="-218.5" font-family="Courier New" font-size="14.00">History[]: paymentHistory &lt;&lt;Array&gt;&gt;</text>
<text text-anchor="middle" x="1023.35" y="-201.7" font-family="Courier New" font-size="14.00">0x0175b7a638427703f0dbe7bb9bbf987a2551717b34e79f33b5b1008d1fa01db9</text>
<polyline fill="none" stroke="black" points="738.1,-193.5 1308.59,-193.5 "/>
<text text-anchor="middle" x="846.81" y="-176.9" font-family="Courier New" font-size="14.00">offset</text>
<polyline fill="none" stroke="black" points="738.1,-168.7 955.51,-168.7 "/>
<text text-anchor="middle" x="846.81" y="-152.1" font-family="Courier New" font-size="14.00">0&#45;2</text>
<polyline fill="none" stroke="black" points="955.51,-143.9 955.51,-193.5 "/>
<text text-anchor="middle" x="1131.93" y="-176.9" font-family="Courier New" font-size="14.00">type: variable (bytes)</text>
<polyline fill="none" stroke="black" points="955.51,-168.7 1308.34,-168.7 "/>
<text text-anchor="middle" x="1131.92" y="-152.1" font-family="Courier New" font-size="14.00">History (96)</text>
</g>
<!-- 6&#45;&gt;4 -->
<g id="edge3" class="edge">
<title>6:23&#45;&gt;4</title>
<path fill="none" stroke="black" d="M527.68,-240.5C592.66,-240.5 662.18,-236.09 727.97,-229.87"/>
<polygon fill="black" stroke="black" points="728.45,-233.34 738.07,-228.9 727.78,-226.37 728.45,-233.34"/>
</g>
<!-- 5 -->
<g id="node6" class="node">
<title>5</title>
<polygon fill="#f2f2f2" stroke="black" points="563.68,-0.5 563.68,-124.5 1483.01,-124.5 1483.01,-0.5 563.68,-0.5"/>
<text text-anchor="middle" x="1023.35" y="-107.9" font-family="Courier New" font-size="14.00">ImportantStruct &lt;&lt;Struct&gt;&gt;</text>
<polyline fill="none" stroke="black" points="563.68,-99.7 1483.01,-99.7 "/>
<text text-anchor="middle" x="596.88" y="-83.1" font-family="Courier New" font-size="14.00">offset</text>
<polyline fill="none" stroke="black" points="563.68,-74.9 630.09,-74.9 "/>
<text text-anchor="middle" x="596.88" y="-58.3" font-family="Courier New" font-size="14.00">0</text>
<polyline fill="none" stroke="black" points="563.68,-50.1 630.09,-50.1 "/>
<text text-anchor="middle" x="596.88" y="-33.5" font-family="Courier New" font-size="14.00">1</text>
<polyline fill="none" stroke="black" points="563.68,-25.3 630.09,-25.3 "/>
<text text-anchor="middle" x="596.88" y="-8.7" font-family="Courier New" font-size="14.00">2</text>
<polyline fill="none" stroke="black" points="630.09,-0.5 630.09,-99.7 "/>
<text text-anchor="middle" x="1056.55" y="-83.1" font-family="Courier New" font-size="14.00">type: variable (bytes)</text>
<polyline fill="none" stroke="black" points="630.09,-74.9 1483.01,-74.9 "/>
<text text-anchor="middle" x="1056.1" y="-58.3" font-family="Courier New" font-size="14.00">uint256: amount (32)</text>
<polyline fill="none" stroke="black" points="630.09,-50.1 1483.01,-50.1 "/>
<text text-anchor="middle" x="1056.5" y="-33.5" font-family="Courier New" font-size="14.00">uint256: bigValue (32)</text>
<polyline fill="none" stroke="black" points="630.09,-25.3 1483.01,-25.3 "/>
<text text-anchor="middle" x="701.1" y="-8.7" font-family="Courier New" font-size="14.00">unallocated (9)</text>
<polyline fill="none" stroke="black" points="772.11,-0.5 772.11,-25.3 "/>
<text text-anchor="middle" x="864.12" y="-8.7" font-family="Courier New" font-size="14.00">address: sender (20)</text>
<polyline fill="none" stroke="black" points="956.14,-0.5 956.14,-25.3 "/>
<text text-anchor="middle" x="1060.75" y="-8.7" font-family="Courier New" font-size="14.00">bool: paymentStatus (1)</text>
<polyline fill="none" stroke="black" points="1165.37,-0.5 1165.37,-25.3 "/>
<text text-anchor="middle" x="1244.78" y="-8.7" font-family="Courier New" font-size="14.00">uint8: valueB (1)</text>
<polyline fill="none" stroke="black" points="1324.19,-0.5 1324.19,-25.3 "/>
<text text-anchor="middle" x="1403.6" y="-8.7" font-family="Courier New" font-size="14.00">uint8: valueA (1)</text>
</g>
<!-- 6&#45;&gt;5 -->
<g id="edge4" class="edge">
<title>6:32&#45;&gt;5</title>
<path fill="none" stroke="black" d="M527.68,-165.5C548.8,-165.5 544.52,-143.37 563.68,-134.5 568.13,-132.44 572.63,-130.44 577.18,-128.49"/>
<polygon fill="black" stroke="black" points="578.68,-131.66 586.56,-124.57 575.98,-125.2 578.68,-131.66"/>
</g>
<!-- 3 -->
<g id="node4" class="node">
<title>3</title>
<polygon fill="#f2f2f2" stroke="black" points="1519.01,-86.1 1519.01,-226.9 2089.5,-226.9 2089.5,-86.1 1519.01,-86.1"/>
<text text-anchor="middle" x="1804.26" y="-210.3" font-family="Courier New" font-size="14.00">History &lt;&lt;Struct&gt;&gt;</text>
<text text-anchor="middle" x="1804.26" y="-193.5" font-family="Courier New" font-size="14.00">0x0175b7a638427703f0dbe7bb9bbf987a2551717b34e79f33b5b1008d1fa01db9</text>
<polyline fill="none" stroke="black" points="1519.01,-185.3 2089.5,-185.3 "/>
<text text-anchor="middle" x="1588.22" y="-168.7" font-family="Courier New" font-size="14.00">offset</text>
<polyline fill="none" stroke="black" points="1519.01,-160.5 1657.42,-160.5 "/>
<text text-anchor="middle" x="1588.22" y="-143.9" font-family="Courier New" font-size="14.00">0</text>
<polyline fill="none" stroke="black" points="1519.01,-135.7 1657.42,-135.7 "/>
<text text-anchor="middle" x="1588.22" y="-119.1" font-family="Courier New" font-size="14.00">1</text>
<polyline fill="none" stroke="black" points="1519.01,-110.9 1657.42,-110.9 "/>
<text text-anchor="middle" x="1588.22" y="-94.3" font-family="Courier New" font-size="14.00">2</text>
<polyline fill="none" stroke="black" points="1657.42,-86.1 1657.42,-185.3 "/>
<text text-anchor="middle" x="1873.25" y="-168.7" font-family="Courier New" font-size="14.00">type: variable (bytes)</text>
<polyline fill="none" stroke="black" points="1657.42,-160.5 2089.08,-160.5 "/>
<text text-anchor="middle" x="1873.24" y="-143.9" font-family="Courier New" font-size="14.00">uint256: lastUpdate (32)</text>
<polyline fill="none" stroke="black" points="1657.42,-135.7 2089.08,-135.7 "/>
<text text-anchor="middle" x="1750.63" y="-119.1" font-family="Courier New" font-size="14.00">unallocated (12)</text>
<polyline fill="none" stroke="black" points="1843.84,-110.9 1843.84,-135.7 "/>
<text text-anchor="middle" x="1966.46" y="-119.1" font-family="Courier New" font-size="14.00">address: updatedBy (20)</text>
<polyline fill="none" stroke="black" points="1657.42,-110.9 2089.08,-110.9 "/>
<text text-anchor="middle" x="1872.94" y="-94.3" font-family="Courier New" font-size="14.00">uint256: blockNumber (32)</text>
</g>
<!-- 4&#45;&gt;3 -->
<g id="edge5" class="edge">
<title>4:22&#45;&gt;3</title>
<path fill="none" stroke="black" d="M1309.35,-156.5C1373.88,-156.5 1443.16,-156.5 1508.82,-156.5"/>
<polygon fill="black" stroke="black" points="1508.9,-160 1518.9,-156.5 1508.9,-153 1508.9,-160"/>
</g>
</g>
</svg>
