<?xml version="1.0" encoding="UTF-8" standalone="no"?>
<!DOCTYPE svg PUBLIC "-//W3C//DTD SVG 1.1//EN"
 "http://www.w3.org/Graphics/SVG/1.1/DTD/svg11.dtd">
<!-- Generated by graphviz version 5.0.0 (20220707.1540)
 -->
<!-- Title: StorageDiagram Pages: 1 -->
<svg width="2599pt" height="603pt"
 viewBox="0.00 0.00 2599.18 603.40" xmlns="http://www.w3.org/2000/svg" xmlns:xlink="http://www.w3.org/1999/xlink">
<g id="graph0" class="graph" transform="scale(1 1) rotate(0) translate(4 599.4)">
<title>StorageDiagram</title>
<polygon fill="white" stroke="transparent" points="-4,4 -4,-599.4 2595.18,-599.4 2595.18,4 -4,4"/>
<!-- 6 -->
<g id="node1" class="node">
<title>6</title>
<polygon fill="#f2f2f2" stroke="black" points="0,-153.1 0,-549.9 1012.55,-549.9 1012.55,-153.1 0,-153.1"/>
<text text-anchor="middle" x="506.28" y="-533.3" font-family="Courier New" font-size="14.00">GasContract &lt;&lt;Contract&gt;&gt;</text>
<polyline fill="none" stroke="black" points="0,-525.1 1012.55,-525.1 "/>
<text text-anchor="middle" x="24.8" y="-508.5" font-family="Courier New" font-size="14.00">slot</text>
<polyline fill="none" stroke="black" points="0,-500.3 49.61,-500.3 "/>
<text text-anchor="middle" x="24.8" y="-483.7" font-family="Courier New" font-size="14.00">0</text>
<polyline fill="none" stroke="black" points="0,-475.5 49.61,-475.5 "/>
<text text-anchor="middle" x="24.8" y="-458.9" font-family="Courier New" font-size="14.00">1</text>
<polyline fill="none" stroke="black" points="0,-450.7 49.61,-450.7 "/>
<text text-anchor="middle" x="24.8" y="-434.1" font-family="Courier New" font-size="14.00">2</text>
<polyline fill="none" stroke="black" points="0,-425.9 49.61,-425.9 "/>
<text text-anchor="middle" x="24.8" y="-409.3" font-family="Courier New" font-size="14.00">3</text>
<polyline fill="none" stroke="black" points="0,-401.1 49.61,-401.1 "/>
<text text-anchor="middle" x="24.8" y="-384.5" font-family="Courier New" font-size="14.00">4</text>
<polyline fill="none" stroke="black" points="0,-376.3 49.61,-376.3 "/>
<text text-anchor="middle" x="24.8" y="-359.7" font-family="Courier New" font-size="14.00">5&#45;9</text>
<polyline fill="none" stroke="black" points="0,-351.5 49.61,-351.5 "/>
<text text-anchor="middle" x="24.8" y="-334.9" font-family="Courier New" font-size="14.00">10</text>
<polyline fill="none" stroke="black" points="0,-326.7 49.61,-326.7 "/>
<text text-anchor="middle" x="24.8" y="-310.1" font-family="Courier New" font-size="14.00">11</text>
<polyline fill="none" stroke="black" points="0,-301.9 49.61,-301.9 "/>
<text text-anchor="middle" x="24.8" y="-285.3" font-family="Courier New" font-size="14.00">12</text>
<polyline fill="none" stroke="black" points="0,-277.1 49.61,-277.1 "/>
<text text-anchor="middle" x="24.8" y="-260.5" font-family="Courier New" font-size="14.00">13</text>
<polyline fill="none" stroke="black" points="0,-252.3 49.61,-252.3 "/>
<text text-anchor="middle" x="24.8" y="-235.7" font-family="Courier New" font-size="14.00">14</text>
<polyline fill="none" stroke="black" points="0,-227.5 49.61,-227.5 "/>
<text text-anchor="middle" x="24.8" y="-210.9" font-family="Courier New" font-size="14.00">15</text>
<polyline fill="none" stroke="black" points="0,-202.7 49.61,-202.7 "/>
<text text-anchor="middle" x="24.8" y="-186.1" font-family="Courier New" font-size="14.00">16</text>
<polyline fill="none" stroke="black" points="0,-177.9 49.61,-177.9 "/>
<text text-anchor="middle" x="24.8" y="-161.3" font-family="Courier New" font-size="14.00">17</text>
<polyline fill="none" stroke="black" points="49.61,-153.1 49.61,-525.1 "/>
<text text-anchor="middle" x="531.08" y="-508.5" font-family="Courier New" font-size="14.00">type: &lt;inherited contract&gt;.variable (bytes)</text>
<polyline fill="none" stroke="black" points="49.61,-500.3 1012.55,-500.3 "/>
<text text-anchor="middle" x="124.82" y="-483.7" font-family="Courier New" font-size="14.00">unallocated (10)</text>
<polyline fill="none" stroke="black" points="200.03,-475.5 200.03,-500.3 "/>
<text text-anchor="middle" x="346.65" y="-483.7" font-family="Courier New" font-size="14.00">uint8: Constants.dividendFlag (1)</text>
<polyline fill="none" stroke="black" points="493.27,-475.5 493.27,-500.3 "/>
<text text-anchor="middle" x="627.29" y="-483.7" font-family="Courier New" font-size="14.00">uint8: Constants.tradeFlag (1)</text>
<polyline fill="none" stroke="black" points="761.31,-475.5 761.31,-500.3 "/>
<text text-anchor="middle" x="886.93" y="-483.7" font-family="Courier New" font-size="14.00">address: Ownable._owner (20)</text>
<polyline fill="none" stroke="black" points="49.61,-475.5 1012.55,-475.5 "/>
<text text-anchor="middle" x="530.62" y="-458.9" font-family="Courier New" font-size="14.00">uint256: totalSupply (32)</text>
<polyline fill="none" stroke="black" points="49.61,-450.7 1012.55,-450.7 "/>
<text text-anchor="middle" x="530.72" y="-434.1" font-family="Courier New" font-size="14.00">uint256: paymentCounter (32)</text>
<polyline fill="none" stroke="black" points="49.61,-425.9 1012.55,-425.9 "/>
<text text-anchor="middle" x="530.82" y="-409.3" font-family="Courier New" font-size="14.00">uint256: tradePercent (32)</text>
<polyline fill="none" stroke="black" points="49.61,-401.1 1012.55,-401.1 "/>
<text text-anchor="middle" x="530.72" y="-384.5" font-family="Courier New" font-size="14.00">uint256: tradeMode (32)</text>
<polyline fill="none" stroke="black" points="49.61,-376.3 1012.55,-376.3 "/>
<text text-anchor="middle" x="531.03" y="-359.7" font-family="Courier New" font-size="14.00">address[5]: administrators (160)</text>
<polyline fill="none" stroke="black" points="49.61,-351.5 1012.55,-351.5 "/>
<text text-anchor="middle" x="192.82" y="-334.9" font-family="Courier New" font-size="14.00">unallocated (11)</text>
<polyline fill="none" stroke="black" points="336.03,-326.7 336.03,-351.5 "/>
<text text-anchor="middle" x="483.94" y="-334.9" font-family="Courier New" font-size="14.00">bool: isReady (1)</text>
<polyline fill="none" stroke="black" points="631.85,-326.7 631.85,-351.5 "/>
<text text-anchor="middle" x="821.77" y="-334.9" font-family="Courier New" font-size="14.00">address: contractOwner (20)</text>
<polyline fill="none" stroke="black" points="49.61,-326.7 1012.55,-326.7 "/>
<text text-anchor="middle" x="530.63" y="-310.1" font-family="Courier New" font-size="14.00">mapping(address=&gt;uint256): balances (32)</text>
<polyline fill="none" stroke="black" points="49.61,-301.9 1012.55,-301.9 "/>
<text text-anchor="middle" x="531.03" y="-285.3" font-family="Courier New" font-size="14.00">mapping(address=&gt;Payment[]): payments (32)</text>
<polyline fill="none" stroke="black" points="49.61,-277.1 1012.55,-277.1 "/>
<text text-anchor="middle" x="530.83" y="-260.5" font-family="Courier New" font-size="14.00">mapping(address=&gt;uint256): whitelist (32)</text>
<polyline fill="none" stroke="black" points="49.61,-252.3 1012.55,-252.3 "/>
<text text-anchor="middle" x="530.63" y="-235.7" font-family="Courier New" font-size="14.00">History[]: paymentHistory (32)</text>
<polyline fill="none" stroke="black" points="49.61,-227.5 1012.55,-227.5 "/>
<text text-anchor="middle" x="530.92" y="-210.9" font-family="Courier New" font-size="14.00">uint256: wasLastOdd (32)</text>
<polyline fill="none" stroke="black" points="49.61,-202.7 1012.55,-202.7 "/>
<text text-anchor="middle" x="530.64" y="-186.1" font-family="Courier New" font-size="14.00">mapping(address=&gt;uint256): isOddWhitelistUser (32)</text>
<polyline fill="none" stroke="black" points="49.61,-177.9 1012.55,-177.9 "/>
<text text-anchor="middle" x="530.64" y="-161.3" font-family="Courier New" font-size="14.00">mapping(address=&gt;ImportantStruct): whiteListStruct (32)</text>
</g>
<!-- 1 -->
<g id="node2" class="node">
<title>1</title>
<polygon fill="#f2f2f2" stroke="black" points="1357.4,-446.1 1357.4,-594.9 1675.84,-594.9 1675.84,-446.1 1357.4,-446.1"/>
<text text-anchor="middle" x="1516.62" y="-578.3" font-family="Courier New" font-size="14.00">address[5]: administrators &lt;&lt;Array&gt;&gt;</text>
<polyline fill="none" stroke="black" points="1357.4,-570.1 1675.84,-570.1 "/>
<text text-anchor="middle" x="1382.2" y="-553.5" font-family="Courier New" font-size="14.00">slot</text>
<polyline fill="none" stroke="black" points="1357.4,-545.3 1407,-545.3 "/>
<text text-anchor="middle" x="1382.2" y="-528.7" font-family="Courier New" font-size="14.00">5</text>
<polyline fill="none" stroke="black" points="1357.4,-520.5 1407,-520.5 "/>
<text text-anchor="middle" x="1382.2" y="-503.9" font-family="Courier New" font-size="14.00">6</text>
<polyline fill="none" stroke="black" points="1357.4,-495.7 1407,-495.7 "/>
<text text-anchor="middle" x="1382.2" y="-479.1" font-family="Courier New" font-size="14.00">8</text>
<polyline fill="none" stroke="black" points="1357.4,-470.9 1407,-470.9 "/>
<text text-anchor="middle" x="1382.2" y="-454.3" font-family="Courier New" font-size="14.00">9</text>
<polyline fill="none" stroke="black" points="1407,-446.1 1407,-570.1 "/>
<text text-anchor="middle" x="1541.12" y="-553.5" font-family="Courier New" font-size="14.00">type: variable (bytes)</text>
<polyline fill="none" stroke="black" points="1407,-545.3 1675.24,-545.3 "/>
<text text-anchor="middle" x="1482.21" y="-528.7" font-family="Courier New" font-size="14.00">unallocated (12)</text>
<polyline fill="none" stroke="black" points="1557.42,-520.5 1557.42,-545.3 "/>
<text text-anchor="middle" x="1616.33" y="-528.7" font-family="Courier New" font-size="14.00">address (20)</text>
<polyline fill="none" stroke="black" points="1407,-520.5 1675.24,-520.5 "/>
<text text-anchor="middle" x="1482.21" y="-503.9" font-family="Courier New" font-size="14.00">unallocated (12)</text>
<polyline fill="none" stroke="black" points="1557.42,-495.7 1557.42,-520.5 "/>
<text text-anchor="middle" x="1616.33" y="-503.9" font-family="Courier New" font-size="14.00">address (20)</text>
<polyline fill="none" stroke="black" points="1407,-495.7 1675.24,-495.7 "/>
<text text-anchor="middle" x="1482.21" y="-479.1" font-family="Courier New" font-size="14.00">unallocated (12)</text>
<polyline fill="none" stroke="black" points="1557.42,-470.9 1557.42,-495.7 "/>
<text text-anchor="middle" x="1616.33" y="-479.1" font-family="Courier New" font-size="14.00">address (20)</text>
<polyline fill="none" stroke="black" points="1407,-470.9 1675.24,-470.9 "/>
<text text-anchor="middle" x="1482.21" y="-454.3" font-family="Courier New" font-size="14.00">unallocated (12)</text>
<polyline fill="none" stroke="black" points="1557.42,-446.1 1557.42,-470.9 "/>
<text text-anchor="middle" x="1616.33" y="-454.3" font-family="Courier New" font-size="14.00">address (20)</text>
</g>
<!-- 6&#45;&gt;1 -->
<g id="edge1" class="edge">
<title>6:12&#45;&gt;1</title>
<path fill="none" stroke="black" d="M1012.55,-363.5C1048.73,-363.5 1019.65,-414.74 1048.55,-436.5 1133.34,-500.33 1251.06,-521.19 1347.1,-526.17"/>
<polygon fill="black" stroke="black" points="1347.07,-529.67 1357.22,-526.64 1347.39,-522.68 1347.07,-529.67"/>
</g>
<!-- 2 -->
<g id="node3" class="node">
<title>2</title>
<polygon fill="#f2f2f2" stroke="black" points="1077.56,-253.7 1077.56,-427.3 1955.69,-427.3 1955.69,-253.7 1077.56,-253.7"/>
<text text-anchor="middle" x="1516.62" y="-410.7" font-family="Courier New" font-size="14.00">Payment &lt;&lt;Struct&gt;&gt;</text>
<polyline fill="none" stroke="black" points="1077.56,-402.5 1955.69,-402.5 "/>
<text text-anchor="middle" x="1110.76" y="-385.9" font-family="Courier New" font-size="14.00">offset</text>
<polyline fill="none" stroke="black" points="1077.56,-377.7 1143.96,-377.7 "/>
<text text-anchor="middle" x="1110.76" y="-361.1" font-family="Courier New" font-size="14.00">0</text>
<polyline fill="none" stroke="black" points="1077.56,-352.9 1143.96,-352.9 "/>
<text text-anchor="middle" x="1110.76" y="-336.3" font-family="Courier New" font-size="14.00">1</text>
<polyline fill="none" stroke="black" points="1077.56,-328.1 1143.96,-328.1 "/>
<text text-anchor="middle" x="1110.76" y="-311.5" font-family="Courier New" font-size="14.00">2</text>
<polyline fill="none" stroke="black" points="1077.56,-303.3 1143.96,-303.3 "/>
<text text-anchor="middle" x="1110.76" y="-286.7" font-family="Courier New" font-size="14.00">3</text>
<polyline fill="none" stroke="black" points="1077.56,-278.5 1143.96,-278.5 "/>
<text text-anchor="middle" x="1110.76" y="-261.9" font-family="Courier New" font-size="14.00">4</text>
<polyline fill="none" stroke="black" points="1143.96,-253.7 1143.96,-402.5 "/>
<text text-anchor="middle" x="1549.82" y="-385.9" font-family="Courier New" font-size="14.00">type: variable (bytes)</text>
<polyline fill="none" stroke="black" points="1143.96,-377.7 1955.69,-377.7 "/>
<text text-anchor="middle" x="1219.17" y="-361.1" font-family="Courier New" font-size="14.00">unallocated (10)</text>
<polyline fill="none" stroke="black" points="1294.39,-352.9 1294.39,-377.7 "/>
<text text-anchor="middle" x="1399" y="-361.1" font-family="Courier New" font-size="14.00">address: recipient (20)</text>
<polyline fill="none" stroke="black" points="1503.62,-352.9 1503.62,-377.7 "/>
<text text-anchor="middle" x="1604.03" y="-361.1" font-family="Courier New" font-size="14.00">bool: adminUpdated (1)</text>
<polyline fill="none" stroke="black" points="1704.45,-352.9 1704.45,-377.7 "/>
<text text-anchor="middle" x="1830.07" y="-361.1" font-family="Courier New" font-size="14.00">PaymentType: paymentType (1)</text>
<polyline fill="none" stroke="black" points="1143.96,-352.9 1955.69,-352.9 "/>
<text text-anchor="middle" x="1340.17" y="-336.3" font-family="Courier New" font-size="14.00">unallocated (12)</text>
<polyline fill="none" stroke="black" points="1536.39,-328.1 1536.39,-352.9 "/>
<text text-anchor="middle" x="1745.7" y="-336.3" font-family="Courier New" font-size="14.00">address: admin (20)</text>
<polyline fill="none" stroke="black" points="1143.96,-328.1 1955.69,-328.1 "/>
<text text-anchor="middle" x="1549.68" y="-311.5" font-family="Courier New" font-size="14.00">string: recipientName (32)</text>
<polyline fill="none" stroke="black" points="1143.96,-303.3 1955.69,-303.3 "/>
<text text-anchor="middle" x="1549.58" y="-286.7" font-family="Courier New" font-size="14.00">uint256: paymentID (32)</text>
<polyline fill="none" stroke="black" points="1143.96,-278.5 1955.69,-278.5 "/>
<text text-anchor="middle" x="1549.48" y="-261.9" font-family="Courier New" font-size="14.00">uint256: amount (32)</text>
</g>
<!-- 6&#45;&gt;2 -->
<g id="edge2" class="edge">
<title>6:23&#45;&gt;2</title>
<path fill="none" stroke="black" d="M1012.55,-289.5C1030.42,-289.5 1048.63,-289.82 1067.01,-290.42"/>
<polygon fill="black" stroke="black" points="1067.12,-293.92 1077.24,-290.77 1067.37,-286.93 1067.12,-293.92"/>
</g>
<!-- 4 -->
<g id="node5" class="node">
<title>4</title>
<polygon fill="#f2f2f2" stroke="black" points="1231.38,-143.9 1231.38,-235.1 1801.87,-235.1 1801.87,-143.9 1231.38,-143.9"/>
<text text-anchor="middle" x="1516.62" y="-218.5" font-family="Courier New" font-size="14.00">History[]: paymentHistory &lt;&lt;Array&gt;&gt;</text>
<text text-anchor="middle" x="1516.62" y="-201.7" font-family="Courier New" font-size="14.00">0xbb7b4a454dc3493923482f07822329ed19e8244eff582cc204f8554c3620c3fd</text>
<polyline fill="none" stroke="black" points="1231.38,-193.5 1801.87,-193.5 "/>
<text text-anchor="middle" x="1340.08" y="-176.9" font-family="Courier New" font-size="14.00">offset</text>
<polyline fill="none" stroke="black" points="1231.38,-168.7 1448.78,-168.7 "/>
<text text-anchor="middle" x="1340.08" y="-152.1" font-family="Courier New" font-size="14.00">0&#45;2</text>
<polyline fill="none" stroke="black" points="1448.78,-143.9 1448.78,-193.5 "/>
<text text-anchor="middle" x="1625.2" y="-176.9" font-family="Courier New" font-size="14.00">type: variable (bytes)</text>
<polyline fill="none" stroke="black" points="1448.78,-168.7 1801.61,-168.7 "/>
<text text-anchor="middle" x="1625.19" y="-152.1" font-family="Courier New" font-size="14.00">History (96)</text>
</g>
<!-- 6&#45;&gt;4 -->
<g id="edge3" class="edge">
<title>6:29&#45;&gt;4</title>
<path fill="none" stroke="black" d="M1012.28,-239.5C1080.07,-239.5 1152.76,-234.95 1221.21,-228.6"/>
<polygon fill="black" stroke="black" points="1221.65,-232.07 1231.28,-227.65 1221,-225.11 1221.65,-232.07"/>
</g>
<!-- 5 -->
<g id="node6" class="node">
<title>5</title>
<polygon fill="#f2f2f2" stroke="black" points="1048.55,-0.5 1048.55,-124.5 1984.69,-124.5 1984.69,-0.5 1048.55,-0.5"/>
<text text-anchor="middle" x="1516.62" y="-107.9" font-family="Courier New" font-size="14.00">ImportantStruct &lt;&lt;Struct&gt;&gt;</text>
<polyline fill="none" stroke="black" points="1048.55,-99.7 1984.69,-99.7 "/>
<text text-anchor="middle" x="1081.76" y="-83.1" font-family="Courier New" font-size="14.00">offset</text>
<polyline fill="none" stroke="black" points="1048.55,-74.9 1114.96,-74.9 "/>
<text text-anchor="middle" x="1081.76" y="-58.3" font-family="Courier New" font-size="14.00">0</text>
<polyline fill="none" stroke="black" points="1048.55,-50.1 1114.96,-50.1 "/>
<text text-anchor="middle" x="1081.76" y="-33.5" font-family="Courier New" font-size="14.00">1</text>
<polyline fill="none" stroke="black" points="1048.55,-25.3 1114.96,-25.3 "/>
<text text-anchor="middle" x="1081.76" y="-8.7" font-family="Courier New" font-size="14.00">2</text>
<polyline fill="none" stroke="black" points="1114.96,-0.5 1114.96,-99.7 "/>
<text text-anchor="middle" x="1549.82" y="-83.1" font-family="Courier New" font-size="14.00">type: variable (bytes)</text>
<polyline fill="none" stroke="black" points="1114.96,-74.9 1984.69,-74.9 "/>
<text text-anchor="middle" x="1549.47" y="-58.3" font-family="Courier New" font-size="14.00">uint256: amount (32)</text>
<polyline fill="none" stroke="black" points="1114.96,-50.1 1984.69,-50.1 "/>
<text text-anchor="middle" x="1549.38" y="-33.5" font-family="Courier New" font-size="14.00">uint256: bigValue (32)</text>
<polyline fill="none" stroke="black" points="1114.96,-25.3 1984.69,-25.3 "/>
<text text-anchor="middle" x="1185.97" y="-8.7" font-family="Courier New" font-size="14.00">unallocated (7)</text>
<polyline fill="none" stroke="black" points="1256.98,-0.5 1256.98,-25.3 "/>
<text text-anchor="middle" x="1348.99" y="-8.7" font-family="Courier New" font-size="14.00">address: sender (20)</text>
<polyline fill="none" stroke="black" points="1441.01,-0.5 1441.01,-25.3 "/>
<text text-anchor="middle" x="1545.62" y="-8.7" font-family="Courier New" font-size="14.00">bool: paymentStatus (1)</text>
<polyline fill="none" stroke="black" points="1650.24,-0.5 1650.24,-25.3 "/>
<text text-anchor="middle" x="1733.85" y="-8.7" font-family="Courier New" font-size="14.00">uint16: valueB (2)</text>
<polyline fill="none" stroke="black" points="1817.46,-0.5 1817.46,-25.3 "/>
<text text-anchor="middle" x="1901.08" y="-8.7" font-family="Courier New" font-size="14.00">uint16: valueA (2)</text>
</g>
<!-- 6&#45;&gt;5 -->
<g id="edge4" class="edge">
<title>6:38&#45;&gt;5</title>
<path fill="none" stroke="black" d="M1012.28,-165.5C1033.48,-165.5 1029.28,-143.34 1048.55,-134.5 1053.04,-132.44 1057.57,-130.44 1062.14,-128.5"/>
<polygon fill="black" stroke="black" points="1063.68,-131.65 1071.58,-124.59 1061,-125.18 1063.68,-131.65"/>
</g>
<!-- 3 -->
<g id="node4" class="node">
<title>3</title>
<polygon fill="#f2f2f2" stroke="black" points="2020.69,-86.1 2020.69,-226.9 2591.18,-226.9 2591.18,-86.1 2020.69,-86.1"/>
<text text-anchor="middle" x="2305.93" y="-210.3" font-family="Courier New" font-size="14.00">History &lt;&lt;Struct&gt;&gt;</text>
<text text-anchor="middle" x="2305.93" y="-193.5" font-family="Courier New" font-size="14.00">0xbb7b4a454dc3493923482f07822329ed19e8244eff582cc204f8554c3620c3fd</text>
<polyline fill="none" stroke="black" points="2020.69,-185.3 2591.18,-185.3 "/>
<text text-anchor="middle" x="2089.89" y="-168.7" font-family="Courier New" font-size="14.00">offset</text>
<polyline fill="none" stroke="black" points="2020.69,-160.5 2159.1,-160.5 "/>
<text text-anchor="middle" x="2089.89" y="-143.9" font-family="Courier New" font-size="14.00">0</text>
<polyline fill="none" stroke="black" points="2020.69,-135.7 2159.1,-135.7 "/>
<text text-anchor="middle" x="2089.89" y="-119.1" font-family="Courier New" font-size="14.00">1</text>
<polyline fill="none" stroke="black" points="2020.69,-110.9 2159.1,-110.9 "/>
<text text-anchor="middle" x="2089.89" y="-94.3" font-family="Courier New" font-size="14.00">2</text>
<polyline fill="none" stroke="black" points="2159.1,-86.1 2159.1,-185.3 "/>
<text text-anchor="middle" x="2374.92" y="-168.7" font-family="Courier New" font-size="14.00">type: variable (bytes)</text>
<polyline fill="none" stroke="black" points="2159.1,-160.5 2590.75,-160.5 "/>
<text text-anchor="middle" x="2374.91" y="-143.9" font-family="Courier New" font-size="14.00">uint256: lastUpdate (32)</text>
<polyline fill="none" stroke="black" points="2159.1,-135.7 2590.75,-135.7 "/>
<text text-anchor="middle" x="2252.31" y="-119.1" font-family="Courier New" font-size="14.00">unallocated (12)</text>
<polyline fill="none" stroke="black" points="2345.52,-110.9 2345.52,-135.7 "/>
<text text-anchor="middle" x="2468.13" y="-119.1" font-family="Courier New" font-size="14.00">address: updatedBy (20)</text>
<polyline fill="none" stroke="black" points="2159.1,-110.9 2590.75,-110.9 "/>
<text text-anchor="middle" x="2374.61" y="-94.3" font-family="Courier New" font-size="14.00">uint256: blockNumber (32)</text>
</g>
<!-- 4&#45;&gt;3 -->
<g id="edge5" class="edge">
<title>4:28&#45;&gt;3</title>
<path fill="none" stroke="black" d="M1802.62,-156.5C1869.84,-156.5 1942.13,-156.5 2010.33,-156.5"/>
<polygon fill="black" stroke="black" points="2010.36,-160 2020.36,-156.5 2010.36,-153 2010.36,-160"/>
</g>
</g>
</svg>
